General
Unique ID                                : 51737854674678730943796268176091429145 (0x26EC592DF73C476F1A5540D1197CB919)
Complete name                            : D:\Movies\i3.mkv
Format                                   : Matroska
Format version                           : Version 4
File size                                : 1.00 GiB
Duration                                 : 1 h 43 min
Overall bit rate                         : 1 386 kb/s
Movie name                               : PSArips.com | Insidious.The.Last.Key.2018.1080p.BrRip.6CH.x265.HEVC-PSA
Encoded date                             : UTC 2018-03-20 10:41:48
Writing application                      : mkvmerge v21.0.0 ('Tardigrades Will Inherit The Earth') 64-bit
Writing library                          : libebml v1.3.5 + libmatroska v1.4.8

Video
ID                                       : 1
Format                                   : HEVC
Format/Info                              : High Efficiency Video Coding
Format profile                           : Main@L4@Main
Codec ID                                 : V_MPEGH/ISO/HEVC
Duration                                 : 1 h 43 min
Bit rate                                 : 1 184 kb/s
Width                                    : 1 920 pixels
Height                                   : 808 pixels
Display aspect ratio                     : 2.40:1
Frame rate mode                          : Constant
Frame rate                               : 23.976 (24000/1001) FPS
Color space                              : YUV
Chroma subsampling                       : 4:2:0
Bit depth                                : 8 bits
Bits/(Pixel*Frame)                       : 0.032
Stream size                              : 876 MiB (85%)
Default                                  : Yes
Forced                                   : No

Audio
ID                                       : 2
Format                                   : AAC LC SBR
Format/Info                              : Advanced Audio Codec Low Complexity with Spectral Band Replication
Commercial name                          : HE-AAC
Format settings                          : Explicit
Codec ID                                 : A_AAC-2
Duration                                 : 1 h 43 min
Bit rate                                 : 200 kb/s
Channel(s)                               : 6 channels
Channel layout                           : C L R Ls Rs LFE
Sampling rate                            : 48.0 kHz
Frame rate                               : 23.438 FPS (2048 SPF)
Compression mode                         : Lossy
Delay relative to video                  : 23 ms
Stream size                              : 148 MiB (14%)
Default                                  : Yes
Forced                                   : No

Text
ID                                       : 3
Format                                   : UTF-8
Codec ID                                 : S_TEXT/UTF8
Codec ID/Info                            : UTF-8 Plain Text
Duration                                 : 1 h 35 min
Bit rate                                 : 34 b/s
Count of elements                        : 832
Stream size                              : 23.8 KiB (0%)
Language                                 : English
Default                                  : Yes
Forced                                   : No

Menu
00:00:00.000                             : :00:00:00.000
00:16:21.400                             : :00:16:21.397
00:19:55.200                             : :00:19:55.111
00:22:29.200                             : :00:22:29.056
00:29:03.800                             : :00:29:03.617
00:36:24.400                             : :00:36:24.307
00:44:05.800                             : :00:44:05.685
00:54:14.400                             : :00:54:14.168
00:57:22.000                             : :00:57:21.855
01:02:08.200                             : :01:02:08.183
01:05:17.800                             : :01:05:17.664
01:10:18.000                             : :01:10:17.964
01:16:58.600                             : :01:16:58.239
01:22:11.600                             : :01:22:11.593
01:29:49.600                             : :01:29:49.467
01:34:34.400                             : :01:34:34.252

